<?xml version="1.0" encoding="UTF-8"?>
<!DOCTYPE svg PUBLIC "-//W3C//DTD SVG 1.1//EN" "http://www.w3.org/Graphics/SVG/1.1/DTD/svg11.dtd">
<!-- Creator: CorelDRAW -->
<svg xmlns="http://www.w3.org/2000/svg" xml:space="preserve" width="230mm" height="180mm" version="1.1" style="shape-rendering:geometricPrecision; text-rendering:geometricPrecision; image-rendering:optimizeQuality; fill-rule:evenodd; clip-rule:evenodd"
viewBox="0 0 23000 18000"
 xmlns:xlink="http://www.w3.org/1999/xlink"
 xmlns:xodm="http://www.corel.com/coreldraw/odm/2003"
 enable-background="new 0 0 100 100">
 <defs>
  <style type="text/css">
   <![CDATA[
    .fil0 {fill:#102945}
    .fil1 {fill:#C9A15B}
   ]]>
  </style>
 </defs>
 <g id="Camada_x0020_1">
  <metadata id="CorelCorpID_0Corel-Layer"/>
  <g id="_1870708189584">
   <path class="fil0" d="M16632.71 12690.33l1964.14 0 393.76 3743.9 -4712.32 0c1173.11,-984.25 1933.62,-2362.39 2354.42,-3743.9z"/>
   <path class="fil0" d="M16839.84 8254.22l5412.4 0 393.78 3743.92 -5830.22 0c223.43,-991.36 275.71,-1950.27 184.45,-2729.49 -40.47,-345.48 -94.48,-683.42 -160.41,-1014.43z"/>
   <path class="fil0" d="M15200.34 3818.13l5889.61 0c43.56,0 254.84,7.31 581.17,21.04l-0.05 0.05 391.49 3722.8 -5380.13 0c-341.77,-1338.04 -872.2,-2567.39 -1482.09,-3743.89z"/>
   <path class="fil1" d="M10632.31 3520.48c106.59,-1041.38 213.3,-2020.9 319.89,-3062.39 27.69,-270.15 133.26,-342.05 394.77,-292.96l3013.87 565.52c59.46,11.04 -3.89,117.29 -75.18,170.62l-945.15 707.23c426.81,724.65 849.84,1456.34 1240.26,2209.63 609.88,1176.5 1140.36,2405.85 1482.13,3743.89l-0.13 0c58.08,227.48 110.58,458.19 157.28,692.2l0.22 0c65.93,331.09 119.94,668.95 160.45,1014.43 91.26,779.22 38.98,1738.13 -184.45,2729.49l-0.09 0c-51.75,229.59 -112.8,460.91 -183.26,692.19l0.22 0c-420.76,1381.51 -1181.34,2759.65 -2354.38,3743.9l-1.01 0c-986.12,827.2 -2263.2,1376.41 -3875.47,1414.99 157.04,-53.5 1344,-423.29 2503.7,-1414.99l-0.4 0 39.49 -34.06c31.32,-27.17 62.6,-54.78 93.88,-82.86 19.14,-17.2 38.24,-34.7 57.34,-52.28 30.21,-27.74 60.33,-55.96 90.47,-84.64 19.27,-18.41 38.59,-37.03 57.86,-55.78 32.31,-31.5 64.46,-63.52 96.53,-96.05 17.57,-17.8 35.11,-35.85 52.56,-54.01 30.34,-31.45 60.51,-63.43 90.52,-95.83 18.55,-19.99 36.99,-40.18 55.37,-60.53 31.78,-35.13 63.37,-70.76 94.73,-106.94 17.24,-19.91 34.3,-40.01 51.39,-60.31 29.11,-34.43 58.01,-69.34 86.75,-104.82 18.09,-22.33 36.12,-44.89 54.05,-67.66 29.8,-37.8 59.48,-76.21 88.75,-115.15 16.27,-21.63 32.44,-43.42 48.47,-65.4 27.48,-37.47 54.78,-75.58 81.66,-114.03 17.76,-25.36 35.35,-50.88 52.92,-76.69 27.27,-40.3 54.22,-80.96 80.93,-122.26 16.25,-25.25 32.4,-50.77 48.48,-76.39 25.24,-40.4 50.29,-81.37 74.87,-122.8 16.04,-26.99 31.9,-54.18 47.67,-81.57 24.91,-43.42 49.59,-87.41 73.78,-131.95 14.48,-26.58 28.79,-53.39 43.03,-80.41 23.6,-44.97 46.72,-90.52 69.6,-136.69 15.31,-31.02 30.47,-62.24 45.41,-93.71 21.13,-44.52 41.91,-89.49 62.24,-134.99 13.12,-29.34 26.09,-58.8 38.87,-88.57 21.39,-49.85 42.26,-100.45 62.69,-151.53 12.75,-31.89 25.2,-64.07 37.6,-96.51 19.01,-49.78 37.49,-100.12 55.56,-151.11 10.92,-30.84 21.72,-61.86 32.22,-93.14 17.94,-53.15 35.27,-107.03 52.02,-161.45 11.07,-35.75 21.83,-71.77 32.38,-108.02 14.89,-51.25 29.29,-103.05 43.24,-155.38 9.26,-34.78 18.36,-69.82 27.17,-105.04 14.57,-58.62 28.44,-118.03 41.78,-177.99 7.96,-35.92 15.68,-72.03 23.12,-108.37 50.82,-247.22 90.43,-505.71 117.38,-775.76 4.07,-41.21 7.79,-82.66 11.33,-124.44 5.32,-63.41 9.98,-127.4 13.87,-192.04 2.52,-42.08 4.7,-84.43 6.65,-127.11 2.98,-65.21 5.18,-131.01 6.65,-197.42 1.01,-43.86 1.68,-87.95 1.99,-132.34 0.53,-66.06 0.18,-132.8 -0.76,-200.04 -0.75,-46.7 -1.69,-93.67 -3.09,-140.98 -2.06,-67.79 -4.88,-136.39 -8.42,-205.32 -2.54,-49.32 -5.4,-99.02 -8.73,-148.96 -4.79,-72.08 -10.32,-144.88 -16.84,-218.29 -4.16,-47.51 -8.77,-95.35 -13.65,-143.39 -7.44,-73.27 -15.82,-147.25 -24.94,-221.87 -6.17,-50.03 -12.62,-100.32 -19.58,-150.95 -10.23,-75.06 -21.37,-150.87 -33.38,-227.26 -8.13,-52.06 -16.69,-104.38 -25.72,-157.06 -13.48,-79.12 -27.91,-159.05 -43.34,-239.57 -10.1,-53.07 -20.69,-106.37 -31.67,-160.08 -16.8,-82.27 -34.52,-165.26 -53.31,-248.95 -11.48,-51.21 -23.49,-102.7 -35.72,-154.43 -20.19,-85.45 -41.49,-171.65 -63.74,-258.58l-12.99 -50.25 0.59 0c-71.88,-276.52 -155.09,-560.99 -249.2,-852.98l-31.24 -96c-38.54,-117.25 -78.81,-235.77 -121.07,-355.49l-34.56 -97.05c-44.12,-123 -90.3,-247.38 -138.38,-373.03l-34.72 -90.21c-50.46,-129.93 -103.03,-261.27 -157.78,-394.09l-31.15 -75.01c-57.37,-137.7 -117.27,-277 -179.39,-417.76l-30.58 -69.12c-63.87,-143.46 -130.35,-288.75 -199.23,-435.44l-32.4 -68.68c-71.46,-151.05 -145.77,-303.93 -222.68,-458.34l-24.46 -48.87c-79.49,-158.94 -162.07,-319.76 -247.36,-482.27l-24.67 -46.79c-89.9,-170.53 -182.85,-342.97 -279.49,-517.68 -118.82,-214.7 -244.08,-423.82 -368.98,-633.84l-1009.69 755.46c-71.37,53.44 -190.44,83.83 -184.22,23.45z"/>
   <path class="fil0" d="M11282.27 16434.2l-3889.95 0 -393.77 -3743.87 6476.22 0c-350.21,1753.05 -1262.77,2948.47 -2192.5,3743.87z"/>
   <path class="fil0" d="M13030.5 7562l-6571.31 0 -393.72 -3743.87 5365.02 0c729.56,1373.09 1249.76,2617.18 1600.01,3743.87z"/>
   <path class="fil0" d="M13579.64 11998.11l-12831.93 0 -393.72 -3743.89 12875.83 0c377.03,1446.65 461.01,2684.79 349.82,3743.89z"/>
  </g>
 </g>
</svg>
