<?xml version="1.0" encoding="UTF-8"?>
<!DOCTYPE svg PUBLIC "-//W3C//DTD SVG 1.1//EN" "http://www.w3.org/Graphics/SVG/1.1/DTD/svg11.dtd">
<!-- Creator: CorelDRAW -->
<svg xmlns="http://www.w3.org/2000/svg" xml:space="preserve" width="200mm" height="200mm" version="1.1" style="shape-rendering:geometricPrecision; text-rendering:geometricPrecision; image-rendering:optimizeQuality; fill-rule:evenodd; clip-rule:evenodd"
viewBox="0 0 20000 20000"
 xmlns:xlink="http://www.w3.org/1999/xlink"
 xmlns:xodm="http://www.corel.com/coreldraw/odm/2003">
 <defs>
  <style type="text/css">
   <![CDATA[
    .fil0 {fill:#23D366;fill-rule:nonzero}
   ]]>
  </style>
 </defs>
 <g id="Camada_x0020_1">
  <metadata id="CorelCorpID_0Corel-Layer"/>
  <g id="_2011054964944">
   <path class="fil0" d="M9536.79 224.46c-1607.35,104.18 -3295.05,681.64 -4628.55,1583.54 -1407.91,952.49 -2524.12,2238.37 -3247.43,3738.55 -395.88,821.54 -642.93,1595.44 -812.6,2547.94 -127.98,714.38 -154.77,1791.89 -65.48,2619.37 119.06,1113.23 526.85,2446.72 1077.52,3536.15l157.75 306.58 -366.11 1092.4c-202.41,601.26 -568.53,1696.63 -815.58,2434.82 -250.03,741.16 -452.44,1366.24 -452.44,1396.01 0,26.78 38.7,65.48 86.33,83.34 77.39,29.77 86.32,41.67 71.44,133.95 -17.86,95.25 -14.89,101.2 53.58,80.36 122.04,-38.69 2786.05,-887.01 3911.19,-1250.15 589.36,-187.53 1095.38,-342.3 1125.14,-342.3 26.79,0 154.78,50.6 282.78,116.08 1089.42,547.68 2250.27,875.11 3485.55,988.21 488.16,41.68 1482.32,20.84 1961.55,-47.62 2839.64,-392.91 5256.61,-1961.55 6744.88,-4369.59 485.18,-785.8 946.54,-1881.18 1193.6,-2833.68 235.15,-913.8 348.26,-2047.87 285.75,-2922.98 -160.73,-2324.69 -1059.65,-4384.47 -2622.34,-6003.72 -1515.07,-1568.65 -3443.88,-2539 -5640.58,-2833.68 -321.47,-41.67 -1434.7,-77.39 -1785.94,-53.58l-0.01 0zm1163.83 2035.97c1062.63,86.32 1934.76,321.47 2854.52,770.92 1247.18,613.17 2291.95,1529.96 3065.85,2696.77 595.32,895.94 961.43,1860.35 1104.31,2914.05 68.46,500.06 68.46,1512.09 0,2024.06 -485.18,3598.65 -3455.78,6372.81 -7060.4,6599.02 -1270.99,77.39 -2452.68,-130.96 -3607.59,-636.98 -318.49,-139.9 -845.34,-425.64 -1009.06,-544.7 -50.59,-38.7 -116.08,-71.44 -145.85,-71.44 -26.78,0 -660.79,193.48 -1404.93,431.6 -744.14,238.12 -1357.31,431.6 -1360.28,425.65 -5.96,-5.96 184.54,-586.38 419.69,-1288.86 235.15,-705.44 428.63,-1315.64 428.63,-1363.26 0,-47.62 -53.58,-157.75 -130.97,-267.89 -1244.2,-1782.96 -1649.01,-4244.57 -1044.77,-6331.14 133.95,-452.43 244.08,-729.26 461.37,-1160.85 595.32,-1163.83 1503.16,-2178.84 2619.37,-2922.98 1407.91,-940.6 3167.06,-1404.94 4810.12,-1273.97l-0.01 0z"/>
   <path class="fil0" d="M6762.63 5010.77c-68.46,20.83 -166.69,68.46 -223.24,101.2 -151.8,95.25 -592.33,565.55 -729.26,779.86 -437.55,681.63 -535.78,1589.48 -273.84,2476.5 199.42,669.72 443.5,1181.69 889.99,1872.25 565.55,869.15 931.66,1339.45 1518.05,1943.69 881.06,907.85 1622.22,1416.84 2759.27,1890.12 839.38,351.24 1458.51,550.66 1806.77,586.38 241.1,23.81 767.95,-59.53 1077.51,-172.64 428.63,-154.78 919.76,-500.06 1110.26,-779.86 190.5,-285.75 386.95,-931.66 410.76,-1360.28l17.86 -282.78 -92.27 -107.15c-65.48,-71.44 -333.37,-232.18 -875.11,-523.88 -1285.87,-690.56 -1449.58,-756.05 -1651.99,-648.89 -50.6,23.81 -241.1,217.29 -419.7,425.64 -529.82,616.15 -639.96,723.31 -729.26,723.31 -113.11,0 -854.27,-378.03 -1199.55,-610.19 -401.83,-273.85 -663.77,-494.11 -994.17,-836.42 -392.91,-407.79 -818.56,-991.19 -1056.68,-1446.61l-53.58 -107.15 214.32 -235.15c282.77,-300.63 398.85,-482.2 511.97,-797.71 116.08,-321.47 110.13,-419.7 -59.54,-863.21 -151.81,-395.88 -273.85,-723.3 -485.18,-1291.83 -172.64,-467.32 -300.64,-657.82 -479.22,-714.37 -169.67,-50.6 -854.27,-65.49 -994.18,-20.84l0.01 0.01z"/>
  </g>
 </g>
</svg>
